<mxfile host="Electron" modified="2023-07-17T10:07:58.416Z" agent="Mozilla/5.0 (Windows NT 10.0; Win64; x64) AppleWebKit/537.36 (KHTML, like Gecko) draw.io/21.6.1 Chrome/112.0.5615.204 Electron/24.6.1 Safari/537.36" version="21.6.1" etag="C_n0qPT69eCxYeEUla65" type="device">
  <diagram name="Page-1" id="cYlu6envv1czvwRp3Ll9">
    <mxGraphModel dx="2271" dy="593" grid="1" gridSize="10" guides="1" tooltips="0" connect="1" arrows="1" fold="1" page="1" pageScale="1" pageWidth="827" pageHeight="1169" math="0" shadow="0">
      <root>
        <mxCell id="0" />
        <mxCell id="1" parent="0" />
        <mxCell id="RFbAg6HDRsfOQvqRXKBl-13" value="" style="rounded=1;whiteSpace=wrap;html=1;absoluteArcSize=1;arcSize=14;strokeWidth=2;" parent="1" vertex="1">
          <mxGeometry x="-190" y="60" width="1000" height="840" as="geometry" />
        </mxCell>
        <mxCell id="RFbAg6HDRsfOQvqRXKBl-3" value="&lt;h4&gt;application subnet 10.10.10.0/26&lt;/h4&gt;" style="sketch=0;outlineConnect=0;gradientColor=none;html=1;whiteSpace=wrap;fontSize=12;fontStyle=0;shape=mxgraph.aws4.group;grIcon=mxgraph.aws4.group_subnet;strokeColor=#879196;fillColor=none;verticalAlign=top;align=left;spacingLeft=30;fontColor=#879196;dashed=0;" parent="1" vertex="1">
          <mxGeometry x="-86" y="510" width="360" height="129" as="geometry" />
        </mxCell>
        <mxCell id="RFbAg6HDRsfOQvqRXKBl-2" value="" style="image;aspect=fixed;html=1;points=[];align=center;fontSize=12;image=img/lib/azure2/networking/Virtual_Networks.svg;" parent="1" vertex="1">
          <mxGeometry x="343" y="161" width="67" height="40" as="geometry" />
        </mxCell>
        <mxCell id="RFbAg6HDRsfOQvqRXKBl-4" value="&lt;h4&gt;management subnet 10.20.20.0/24&lt;/h4&gt;" style="sketch=0;outlineConnect=0;gradientColor=none;html=1;whiteSpace=wrap;fontSize=12;fontStyle=0;shape=mxgraph.aws4.group;grIcon=mxgraph.aws4.group_subnet;strokeColor=#879196;fillColor=none;verticalAlign=top;align=left;spacingLeft=30;fontColor=#879196;dashed=0;" parent="1" vertex="1">
          <mxGeometry x="400" y="265" width="330" height="140" as="geometry" />
        </mxCell>
        <mxCell id="RFbAg6HDRsfOQvqRXKBl-5" value="" style="endArrow=none;dashed=1;html=1;dashPattern=1 3;strokeWidth=2;rounded=0;entryX=0.541;entryY=1.016;entryDx=0;entryDy=0;entryPerimeter=0;" parent="1" source="RFbAg6HDRsfOQvqRXKBl-11" target="RFbAg6HDRsfOQvqRXKBl-2" edge="1">
          <mxGeometry width="50" height="50" relative="1" as="geometry">
            <mxPoint x="379" y="191" as="sourcePoint" />
            <mxPoint x="409" y="240" as="targetPoint" />
            <Array as="points" />
          </mxGeometry>
        </mxCell>
        <object label="" app-prd-vnet="" id="RFbAg6HDRsfOQvqRXKBl-6">
          <mxCell style="image;aspect=fixed;html=1;points=[];align=center;fontSize=12;image=img/lib/azure2/networking/Virtual_Networks.svg;" parent="1" vertex="1">
            <mxGeometry x="-130" y="162" width="67" height="40" as="geometry" />
          </mxCell>
        </object>
        <mxCell id="RFbAg6HDRsfOQvqRXKBl-7" value="" style="endArrow=none;dashed=1;html=1;dashPattern=1 3;strokeWidth=2;rounded=0;entryX=1;entryY=0;entryDx=0;entryDy=0;exitX=0.5;exitY=1;exitDx=0;exitDy=0;" parent="1" source="RFbAg6HDRsfOQvqRXKBl-9" target="RFbAg6HDRsfOQvqRXKBl-9" edge="1">
          <mxGeometry width="50" height="50" relative="1" as="geometry">
            <mxPoint x="-94" y="191" as="sourcePoint" />
            <mxPoint x="300" y="250" as="targetPoint" />
            <Array as="points">
              <mxPoint x="-100" y="650" />
              <mxPoint x="290" y="650" />
              <mxPoint x="290" y="360" />
              <mxPoint x="290" y="200" />
            </Array>
          </mxGeometry>
        </mxCell>
        <mxCell id="RFbAg6HDRsfOQvqRXKBl-8" value="Peering" style="endArrow=classic;startArrow=classic;html=1;rounded=0;" parent="1" edge="1">
          <mxGeometry width="50" height="50" relative="1" as="geometry">
            <mxPoint x="290" y="421" as="sourcePoint" />
            <mxPoint x="380" y="421" as="targetPoint" />
          </mxGeometry>
        </mxCell>
        <mxCell id="RFbAg6HDRsfOQvqRXKBl-9" value="&lt;h3&gt;app-prd-vnet&lt;/h3&gt;&lt;div&gt;10.10.10.0/24&lt;/div&gt;" style="text;strokeColor=none;align=center;fillColor=none;html=1;verticalAlign=middle;whiteSpace=wrap;rounded=0;" parent="1" vertex="1">
          <mxGeometry x="-143" y="200" width="93" height="30" as="geometry" />
        </mxCell>
        <mxCell id="RFbAg6HDRsfOQvqRXKBl-12" value="" style="endArrow=none;dashed=1;html=1;dashPattern=1 3;strokeWidth=2;rounded=0;entryX=1;entryY=0.5;entryDx=0;entryDy=0;" parent="1" target="RFbAg6HDRsfOQvqRXKBl-11" edge="1">
          <mxGeometry width="50" height="50" relative="1" as="geometry">
            <mxPoint x="379" y="191" as="sourcePoint" />
            <mxPoint x="379" y="191" as="targetPoint" />
            <Array as="points">
              <mxPoint x="380" y="650" />
              <mxPoint x="750" y="650" />
              <mxPoint x="750" y="420" />
              <mxPoint x="750" y="215" />
            </Array>
          </mxGeometry>
        </mxCell>
        <mxCell id="RFbAg6HDRsfOQvqRXKBl-11" value="&lt;h3&gt;management-prd-vnet&lt;/h3&gt;&lt;div&gt;10.20.20.0/24&lt;/div&gt;" style="text;strokeColor=none;align=center;fillColor=none;html=1;verticalAlign=middle;whiteSpace=wrap;rounded=0;" parent="1" vertex="1">
          <mxGeometry x="330" y="200" width="93" height="30" as="geometry" />
        </mxCell>
        <mxCell id="RFbAg6HDRsfOQvqRXKBl-14" value="Key Vault" style="image;aspect=fixed;html=1;points=[];align=center;fontSize=12;image=img/lib/azure2/security/Key_Vaults.svg;" parent="1" vertex="1">
          <mxGeometry x="140" y="690" width="60" height="60" as="geometry" />
        </mxCell>
        <mxCell id="RFbAg6HDRsfOQvqRXKBl-16" value="&lt;h2&gt;Subscription&lt;/h2&gt;" style="image;aspect=fixed;html=1;points=[];align=center;fontSize=12;image=img/lib/azure2/general/Subscriptions.svg;" parent="1" vertex="1">
          <mxGeometry x="-210" y="30" width="44" height="71" as="geometry" />
        </mxCell>
        <mxCell id="RFbAg6HDRsfOQvqRXKBl-19" value="Availability zone 1" style="sketch=0;outlineConnect=0;gradientColor=none;html=1;whiteSpace=wrap;fontSize=12;fontStyle=0;shape=mxgraph.aws4.group;grIcon=mxgraph.aws4.group_availability_zone;strokeColor=#545B64;fillColor=none;verticalAlign=top;align=left;spacingLeft=30;fontColor=#545B64;dashed=1;" parent="1" vertex="1">
          <mxGeometry x="-49" y="170" width="130" height="490" as="geometry" />
        </mxCell>
        <mxCell id="RFbAg6HDRsfOQvqRXKBl-20" value="Availability zone 2" style="sketch=0;outlineConnect=0;gradientColor=none;html=1;whiteSpace=wrap;fontSize=12;fontStyle=0;shape=mxgraph.aws4.group;grIcon=mxgraph.aws4.group_availability_zone;strokeColor=#545B64;fillColor=none;verticalAlign=top;align=left;spacingLeft=30;fontColor=#545B64;dashed=1;" parent="1" vertex="1">
          <mxGeometry x="110" y="170" width="130" height="490" as="geometry" />
        </mxCell>
        <mxCell id="RFbAg6HDRsfOQvqRXKBl-21" value="Availability zone 1" style="sketch=0;outlineConnect=0;gradientColor=none;html=1;whiteSpace=wrap;fontSize=12;fontStyle=0;shape=mxgraph.aws4.group;grIcon=mxgraph.aws4.group_availability_zone;strokeColor=#545B64;fillColor=none;verticalAlign=top;align=left;spacingLeft=30;fontColor=#545B64;dashed=1;" parent="1" vertex="1">
          <mxGeometry x="430" y="170" width="130" height="490" as="geometry" />
        </mxCell>
        <mxCell id="RFbAg6HDRsfOQvqRXKBl-22" value="Availability zone 2" style="sketch=0;outlineConnect=0;gradientColor=none;html=1;whiteSpace=wrap;fontSize=12;fontStyle=0;shape=mxgraph.aws4.group;grIcon=mxgraph.aws4.group_availability_zone;strokeColor=#545B64;fillColor=none;verticalAlign=top;align=left;spacingLeft=30;fontColor=#545B64;dashed=1;" parent="1" vertex="1">
          <mxGeometry x="586" y="170" width="130" height="490" as="geometry" />
        </mxCell>
        <mxCell id="RFbAg6HDRsfOQvqRXKBl-24" value="Service recovery vault" style="image;aspect=fixed;html=1;points=[];align=center;fontSize=12;image=img/lib/azure2/migrate/Recovery_Services_Vaults.svg;" parent="1" vertex="1">
          <mxGeometry x="14.75" y="690" width="69" height="60" as="geometry" />
        </mxCell>
        <mxCell id="RFbAg6HDRsfOQvqRXKBl-31" value="Management server" style="image;aspect=fixed;html=1;points=[];align=center;fontSize=12;image=img/lib/azure2/compute/Virtual_Machine.svg;" parent="1" vertex="1">
          <mxGeometry x="462.66" y="316" width="49.6" height="46" as="geometry" />
        </mxCell>
        <mxCell id="10" value="VMSS (min 1 - max3)" style="aspect=fixed;html=1;points=[];align=center;image;fontSize=12;image=img/lib/azure2/networking/Spot_VMSS.svg;fontFamily=Helvetica;" parent="1" vertex="1">
          <mxGeometry x="14.75" y="560" width="68" height="64" as="geometry" />
        </mxCell>
        <mxCell id="8" value="" style="group" parent="1" vertex="1" connectable="0">
          <mxGeometry x="274" y="470" width="126" height="130" as="geometry" />
        </mxCell>
        <mxCell id="RFbAg6HDRsfOQvqRXKBl-28" value="" style="rounded=1;whiteSpace=wrap;html=1;" parent="8" vertex="1">
          <mxGeometry x="30" y="41.36363636363637" width="96" height="88.63636363636364" as="geometry" />
        </mxCell>
        <mxCell id="RFbAg6HDRsfOQvqRXKBl-25" value="Post deployment script" style="image;aspect=fixed;html=1;points=[];align=center;fontSize=12;image=img/lib/azure2/general/Blob_Block.svg;" parent="8" vertex="1">
          <mxGeometry x="53" y="59.09090909090909" width="50" height="40" as="geometry" />
        </mxCell>
        <mxCell id="RFbAg6HDRsfOQvqRXKBl-23" value="Storage account" style="image;aspect=fixed;html=1;points=[];align=center;fontSize=12;image=img/lib/azure2/storage/Storage_Accounts.svg;" parent="8" vertex="1">
          <mxGeometry width="50" height="40" as="geometry" />
        </mxCell>
        <mxCell id="6" value="" style="endArrow=none;html=1;entryX=0.485;entryY=1.049;entryDx=0;entryDy=0;entryPerimeter=0;exitX=0.55;exitY=0.003;exitDx=0;exitDy=0;exitPerimeter=0;" parent="1" source="10" target="9" edge="1">
          <mxGeometry width="50" height="50" relative="1" as="geometry">
            <mxPoint x="46.91289000000006" y="398" as="sourcePoint" />
            <mxPoint x="16" y="345" as="targetPoint" />
          </mxGeometry>
        </mxCell>
        <mxCell id="12" value="&lt;h4&gt;appGatewaySubnet 10.10.10.128/26&lt;/h4&gt;" style="sketch=0;outlineConnect=0;gradientColor=none;html=1;whiteSpace=wrap;fontSize=12;fontStyle=0;shape=mxgraph.aws4.group;grIcon=mxgraph.aws4.group_subnet;strokeColor=#879196;fillColor=none;verticalAlign=top;align=left;spacingLeft=30;fontColor=#879196;dashed=0;" parent="1" vertex="1">
          <mxGeometry x="-86" y="350" width="360" height="140" as="geometry" />
        </mxCell>
        <mxCell id="9" value="&lt;span style=&quot;color: rgb(55, 65, 81); text-align: left; background-color: rgb(247, 247, 248);&quot;&gt;&lt;font style=&quot;font-size: 12px;&quot;&gt;Application gateway:&lt;/font&gt;&lt;br&gt;&lt;/span&gt;" style="sketch=0;aspect=fixed;html=1;points=[];align=center;image;fontSize=12;image=img/lib/mscae/Application_Gateway.svg;" parent="1" vertex="1">
          <mxGeometry x="69" y="400" width="50" height="50" as="geometry" />
        </mxCell>
        <mxCell id="13" value="" style="endArrow=none;html=1;entryX=1.066;entryY=0.487;entryDx=0;entryDy=0;entryPerimeter=0;exitX=-0.032;exitY=0.573;exitDx=0;exitDy=0;exitPerimeter=0;" parent="1" source="RFbAg6HDRsfOQvqRXKBl-23" target="10" edge="1">
          <mxGeometry width="50" height="50" relative="1" as="geometry">
            <mxPoint x="20.90000000000009" y="497.192" as="sourcePoint" />
            <mxPoint x="20.75" y="362.44999999999993" as="targetPoint" />
          </mxGeometry>
        </mxCell>
        <mxCell id="14" value="Public IP" style="sketch=0;aspect=fixed;html=1;points=[];align=center;image;fontSize=12;image=img/lib/mscae/App_Service_IPAddress.svg;fontFamily=Helvetica;" parent="1" vertex="1">
          <mxGeometry x="-35.25" y="470" width="50" height="42" as="geometry" />
        </mxCell>
        <mxCell id="15" value="" style="endArrow=none;html=1;entryX=0.113;entryY=0.613;entryDx=0;entryDy=0;entryPerimeter=0;exitX=0.496;exitY=0.092;exitDx=0;exitDy=0;exitPerimeter=0;" parent="1" source="14" target="9" edge="1">
          <mxGeometry width="50" height="50" relative="1" as="geometry">
            <mxPoint x="7.399999999999864" y="550.192" as="sourcePoint" />
            <mxPoint x="20.750000000000114" y="362.44999999999993" as="targetPoint" />
          </mxGeometry>
        </mxCell>
        <mxCell id="T6UWzws6_AiT5sut2Cbi-15" value="&lt;h4&gt;SQL Subnet 10.10.10.64/26&lt;/h4&gt;" style="sketch=0;outlineConnect=0;gradientColor=none;html=1;whiteSpace=wrap;fontSize=12;fontStyle=0;shape=mxgraph.aws4.group;grIcon=mxgraph.aws4.group_subnet;strokeColor=#879196;fillColor=none;verticalAlign=top;align=left;spacingLeft=30;fontColor=#879196;dashed=0;" vertex="1" parent="1">
          <mxGeometry x="-86" y="250" width="360" height="90" as="geometry" />
        </mxCell>
        <mxCell id="T6UWzws6_AiT5sut2Cbi-16" value="" style="endArrow=classic;startArrow=classic;html=1;rounded=0;entryX=0.263;entryY=0.878;entryDx=0;entryDy=0;entryPerimeter=0;" edge="1" parent="1" source="RFbAg6HDRsfOQvqRXKBl-23" target="RFbAg6HDRsfOQvqRXKBl-31">
          <mxGeometry width="50" height="50" relative="1" as="geometry">
            <mxPoint x="180" y="440" as="sourcePoint" />
            <mxPoint x="230" y="390" as="targetPoint" />
          </mxGeometry>
        </mxCell>
        <mxCell id="T6UWzws6_AiT5sut2Cbi-17" value="" style="endArrow=classic;startArrow=classic;html=1;rounded=0;entryX=0.032;entryY=0.88;entryDx=0;entryDy=0;entryPerimeter=0;exitX=0.974;exitY=0.399;exitDx=0;exitDy=0;exitPerimeter=0;" edge="1" parent="1" source="RFbAg6HDRsfOQvqRXKBl-14" target="RFbAg6HDRsfOQvqRXKBl-23">
          <mxGeometry width="50" height="50" relative="1" as="geometry">
            <mxPoint x="180" y="440" as="sourcePoint" />
            <mxPoint x="230" y="390" as="targetPoint" />
          </mxGeometry>
        </mxCell>
        <mxCell id="T6UWzws6_AiT5sut2Cbi-18" value="" style="image;aspect=fixed;html=1;points=[];align=center;fontSize=12;image=img/lib/azure2/databases/Azure_SQL_VM.svg;" vertex="1" parent="1">
          <mxGeometry x="126" y="270" width="64" height="60" as="geometry" />
        </mxCell>
        <mxCell id="T6UWzws6_AiT5sut2Cbi-20" value="" style="endArrow=classic;startArrow=classic;html=1;rounded=0;entryX=0.969;entryY=0.367;entryDx=0;entryDy=0;entryPerimeter=0;exitX=0.413;exitY=0.083;exitDx=0;exitDy=0;exitPerimeter=0;" edge="1" parent="1" source="RFbAg6HDRsfOQvqRXKBl-23" target="T6UWzws6_AiT5sut2Cbi-18">
          <mxGeometry width="50" height="50" relative="1" as="geometry">
            <mxPoint x="300" y="430" as="sourcePoint" />
            <mxPoint x="350" y="380" as="targetPoint" />
          </mxGeometry>
        </mxCell>
      </root>
    </mxGraphModel>
  </diagram>
</mxfile>
